{
  "accessors": [
    {
      "bufferView": 2,
      "componentType": 5126,
      "count": 52922,
      "max": [
        1.6392600536346436,
        4.13290548324585,
        1.2205545902252197
      ],
      "min": [
        -1.6392598152160645,
        -0.06001133471727371,
        -3.009453058242798
      ],
      "type": "VEC3"
    },
    {
      "bufferView": 2,
      "byteOffset": 635064,
      "componentType": 5126,
      "count": 52922,
      "max": [
        0.9999749660491943,
        0.9999969005584717,
        0.9999865889549255
      ],
      "min": [
        -0.9999952912330627,
        -0.9999964833259583,
        -0.9999951720237732
      ],
      "type": "VEC3"
    },
    {
      "bufferView": 3,
      "componentType": 5126,
      "count": 52922,
      "max": [
        0.9999322891235352,
        0.9999639391899109,
        0.9998959898948669,
        1.0
      ],
      "min": [
        -1.0,
        -0.9999967813491821,
        -0.9999915361404419,
        -1.0
      ],
      "type": "VEC4"
    },
    {
      "bufferView": 1,
      "componentType": 5126,
      "count": 52922,
      "max": [
        0.957994282245636,
        0.9996424913406372
      ],
      "min": [
        0.0003575099690351635,
        0.0003575099690351635
      ],
      "type": "VEC2"
    },
    {
      "bufferView": 1,
      "byteOffset": 423376,
      "componentType": 5126,
      "count": 52922,
      "max": [
        0.957994282245636,
        0.9996424913406372
      ],
      "min": [
        0.0003575099690351635,
        0.0003575099690351635
      ],
      "type": "VEC2"
    },
    {
      "bufferView": 1,
      "byteOffset": 846752,
      "componentType": 5126,
      "count": 52922,
      "max": [
        0.957994282245636,
        0.9996424913406372
      ],
      "min": [
        0.0003575099690351635,
        0.0003575099690351635
      ],
      "type": "VEC2"
    },
    {
      "bufferView": 0,
      "componentType": 5125,
      "count": 309012,
      "type": "SCALAR"
    }
  ],
  "asset": {
    "extras": {
      "author": "Nwilly_art (https://sketchfab.com/Nwilly_art)",
      "license": "CC-BY-4.0 (http://creativecommons.org/licenses/by/4.0/)",
      "source": "https://sketchfab.com/3d-models/monke-0f81ff8ac9f44436b1750f06d1333967",
      "title": "Monke"
    },
    "generator": "Sketchfab-12.66.0",
    "version": "2.0"
  },
  "bufferViews": [
    {
      "buffer": 0,
      "byteLength": 1236048,
      "name": "floatBufferViews",
      "target": 34963
    },
    {
      "buffer": 0,
      "byteLength": 1270128,
      "byteOffset": 1236048,
      "byteStride": 8,
      "name": "floatBufferViews",
      "target": 34962
    },
    {
      "buffer": 0,
      "byteLength": 1270128,
      "byteOffset": 2506176,
      "byteStride": 12,
      "name": "floatBufferViews",
      "target": 34962
    },
    {
      "buffer": 0,
      "byteLength": 846752,
      "byteOffset": 3776304,
      "byteStride": 16,
      "name": "floatBufferViews",
      "target": 34962
    }
  ],
  "buffers": [
    {
      "byteLength": 4623056,
      "uri": "scene.bin"
    }
  ],
  "images": [
    {
      "uri": "textures/Poker_baseColor.png"
    },
    {
      "uri": "textures/Poker_metallicRoughness.png"
    },
    {
      "uri": "textures/Poker_normal.png"
    }
  ],
  "materials": [
    {
      "doubleSided": true,
      "name": "Poker",
      "normalTexture": {
        "index": 2
      },
      "pbrMetallicRoughness": {
        "baseColorTexture": {
          "index": 0
        },
        "metallicRoughnessTexture": {
          "index": 1
        }
      }
    }
  ],
  "meshes": [
    {
      "name": "PM3D_PolySphere9_Poker_0",
      "primitives": [
        {
          "attributes": {
            "NORMAL": 1,
            "POSITION": 0,
            "TANGENT": 2,
            "TEXCOORD_0": 3,
            "TEXCOORD_1": 4,
            "TEXCOORD_2": 5
          },
          "indices": 6,
          "material": 0,
          "mode": 4
        }
      ]
    }
  ],
  "nodes": [
    {
      "children": [
        1
      ],
      "matrix": [
        1.0,
        0.0,
        0.0,
        0.0,
        0.0,
        2.220446049250313e-16,
        -1.0,
        0.0,
        0.0,
        1.0,
        2.220446049250313e-16,
        0.0,
        0.0,
        0.0,
        0.0,
        1.0
      ],
      "name": "Sketchfab_model"
    },
    {
      "children": [
        2
      ],
      "matrix": [
        1.0,
        0.0,
        0.0,
        0.0,
        0.0,
        0.0,
        1.0,
        0.0,
        0.0,
        -1.0,
        0.0,
        0.0,
        0.0,
        0.0,
        0.0,
        1.0
      ],
      "name": "79a79e093b0a4a5d8975e40151badccb.fbx"
    },
    {
      "children": [
        3
      ],
      "name": "RootNode"
    },
    {
      "children": [
        4
      ],
      "matrix": [
        569.1096801757813,
        0.0,
        0.0,
        0.0,
        0.0,
        569.1096801757736,
        9.271973890189913e-05,
        0.0,
        0.0,
        -9.271973890189913e-05,
        569.1096801757736,
        0.0,
        0.0,
        0.0,
        0.0,
        1.0
      ],
      "name": "PM3D_PolySphere9"
    },
    {
      "mesh": 0,
      "name": "PM3D_PolySphere9_Poker_0"
    }
  ],
  "samplers": [
    {
      "magFilter": 9729,
      "minFilter": 9987,
      "wrapS": 10497,
      "wrapT": 10497
    }
  ],
  "scene": 0,
  "scenes": [
    {
      "name": "Sketchfab_Scene",
      "nodes": [
        0
      ]
    }
  ],
  "textures": [
    {
      "sampler": 0,
      "source": 0
    },
    {
      "sampler": 0,
      "source": 1
    },
    {
      "sampler": 0,
      "source": 2
    }
  ]
}
